<svg width="47" height="40" viewBox="0 0 47 40" fill="none" xmlns="http://www.w3.org/2000/svg">
<path fill-rule="evenodd" clip-rule="evenodd" d="M47 6.24729C39.9605 9.71802 36.4407 13.7961 36.4407 18.4816C39.4412 18.8286 41.9223 20.0578 43.8842 22.1692C45.846 24.2806 46.8269 26.7245 46.8269 29.5011C46.8269 32.4512 45.8748 34.9385 43.9707 36.9631C42.0666 38.9877 39.672 40 36.7869 40C33.5557 40 30.7572 38.684 28.3915 36.0521C26.0257 33.4201 24.8429 30.2242 24.8429 26.4642C24.8429 15.1843 31.1322 6.36301 43.711 0L47 6.24729ZM22.1571 6.24729C15.0599 9.71802 11.5113 13.7961 11.5113 18.4816C14.5695 18.8286 17.0795 20.0578 19.0413 22.1692C21.0031 24.2806 21.984 26.7245 21.984 29.5011C21.984 32.4512 21.0176 34.9385 19.0846 36.9631C17.1516 38.9877 14.7426 40 11.8575 40C8.62627 40 5.84223 38.684 3.50533 36.0521C1.16843 33.4201 0 30.2242 0 26.4642C0 15.1843 6.26048 6.36301 18.7816 0L22.1571 6.24729Z" fill="#62D5DC"/>
</svg>
