<svg width="47" height="40" fill="none" xmlns="http://www.w3.org/2000/svg"><path fill-rule="evenodd" clip-rule="evenodd" d="M47 6.247c-7.04 3.471-10.56 7.55-10.56 12.235 3.001.347 5.482 1.576 7.444 3.687 1.962 2.112 2.943 4.555 2.943 7.332 0 2.95-.952 5.437-2.856 7.462C42.067 38.988 39.672 40 36.787 40c-3.231 0-6.03-1.316-8.395-3.948-2.366-2.632-3.55-5.828-3.55-9.588 0-11.28 6.29-20.101 18.869-26.464L47 6.247zm-24.843 0c-7.097 3.471-10.646 7.55-10.646 12.235 3.059.347 5.569 1.576 7.53 3.687 1.962 2.112 2.943 4.555 2.943 7.332 0 2.95-.966 5.437-2.9 7.462C17.153 38.988 14.744 40 11.859 40c-3.232 0-6.016-1.316-8.353-3.948C1.168 33.42 0 30.224 0 26.464 0 15.184 6.26 6.363 18.782 0l3.375 6.247z" fill="#62D5DC"/></svg>