<svg width="310" height="294" fill="none" xmlns="http://www.w3.org/2000/svg"><path d="M208.752 267.157c-7.115 8.232-21.663 12.158-32.261 8.736-10.598-3.422-27.945-3.154-38.443.6-10.498 3.753-25.162.315-32.561-7.696-7.398-8.012-22.529-15.96-33.627-17.663-11.098-1.703-21.946-11.639-24.112-22.079-2.167-10.44-11.082-24.475-19.797-31.209-8.715-6.734-12.847-20.47-9.231-30.579 3.616-10.108 3.349-26.399-.584-36.271-3.932-9.873-.366-23.877 8.082-30.879 8.449-7.002 16.914-21.321 18.664-31.824s12.314-20.77 23.329-22.836c11.014-2.066 25.862-10.471 32.977-18.719 7.115-8.248 21.663-12.159 32.261-8.72 10.598 3.437 27.995 3.153 38.46-.569 10.464-3.721 25.145-.315 32.56 7.696 7.416 8.012 22.513 15.96 33.628 17.616 11.114 1.656 21.946 11.654 24.129 22.078s11.064 24.476 19.779 31.21c8.716 6.734 12.848 20.501 9.232 30.531-3.616 10.03-3.333 26.447.633 36.398 3.966 9.951.334 23.797-8.132 30.799-8.465 7.002-16.863 21.322-18.663 31.825-1.8 10.503-12.298 20.769-23.329 22.835-11.031 2.066-25.879 10.487-32.994 18.72z" fill="url(#paint0_linear_0_131)"/><path d="M284.645 149.735c1.625-67.779-55.115-123.972-126.734-125.51-71.618-1.538-130.994 52.161-132.619 119.94s55.115 123.972 126.734 125.51c71.618 1.538 130.994-52.161 132.619-119.94z" fill="url(#paint1_linear_0_131)"/><path d="M282.722 146.955c0 23.914-7.493 47.291-21.531 67.175-14.039 19.884-33.992 35.381-57.337 44.533-23.346 9.151-49.034 11.546-73.817 6.88-24.783-4.665-47.548-16.181-65.415-33.09-17.868-16.91-30.036-38.454-34.966-61.909-4.93-23.454-2.4-47.766 7.27-69.859 9.67-22.094 26.046-40.978 47.056-54.264 21.01-13.285 45.711-20.377 70.98-20.377 16.778-.002 33.393 3.124 48.894 9.2 15.502 6.075 29.587 14.982 41.451 26.21 11.864 11.228 21.275 24.558 27.694 39.228 6.42 14.671 9.723 30.395 9.721 46.273z" fill="url(#paint2_radial_0_131)"/><path d="M278.048 149.594c1.543-64.331-52.311-117.665-120.286-119.125-67.975-1.46-124.33 49.507-125.873 113.838-1.542 64.331 52.312 117.665 120.287 119.125 67.975 1.46 124.33-49.507 125.872-113.838z" fill="url(#paint3_linear_0_131)"/><path d="M268.122 186.546c23.113-59.134-8.802-124.803-71.286-146.678-62.483-21.874-131.873 8.33-154.986 67.464s8.803 124.804 71.286 146.678c62.483 21.874 131.873-8.33 154.986-67.464z" fill="url(#paint4_linear_0_131)"/><path d="M156.202 234.103c52.03-.645 93.656-41.085 92.975-90.326-.681-49.24-43.412-88.636-95.442-87.991-52.029.645-93.656 41.085-92.975 90.325.681 49.241 43.412 88.636 95.442 87.992z" fill="url(#paint5_radial_0_131)"/><path d="M245.179 144.936c0 16.884-5.29 33.388-15.202 47.426-9.911 14.039-23.999 24.98-40.481 31.441-16.481 6.461-34.618 8.152-52.115 4.858-17.497-3.294-33.569-11.424-46.184-23.363-12.615-11.938-21.206-27.149-24.686-43.708-3.48-16.559-1.694-33.723 5.133-49.321 6.827-15.599 18.388-28.93 33.222-38.31 14.833-9.38 32.272-14.388 50.112-14.388 23.922.005 46.862 9 63.777 25.008s26.419 37.718 26.424 60.357z" fill="url(#paint6_linear_0_131)"/><path style="mix-blend-mode:screen" d="M98.905 211.772c30.787-49.503 74.448-90.726 126.827-119.745-7.881-9.456-17.789-17.227-29.071-22.8-11.281-5.574-23.682-8.825-36.386-9.54-12.704-.713-25.423 1.125-37.323 5.395-11.9 4.27-22.71 10.876-31.72 19.383-9.009 8.506-16.014 18.721-20.554 29.972-4.54 11.252-6.513 23.286-5.788 35.31.724 12.025 4.13 23.768 9.992 34.458 5.863 10.69 14.05 20.085 24.023 27.567z" fill="url(#paint7_radial_0_131)"/><path d="M53.014 155.755l-6.05-3.391-6.048 3.391 1.55-6.482-5.3-4.4 7.016-.631 2.783-6.103 2.8 6.103 6.998.615-5.282 4.4 1.533 6.498z" fill="url(#paint8_radial_0_131)"/><path d="M269.158 153.737l-6.066-3.391-6.032 3.406 1.533-6.497-5.282-4.4 6.998-.615 2.783-6.119 2.8 6.119 6.998.615-5.282 4.4 1.55 6.482z" fill="url(#paint9_radial_0_131)"/><path d="M96.775 118.045c0 .813-.186 1.56-.56 2.24-.373.667-.946 1.207-1.72 1.62-.773.413-1.733.62-2.88.62h-2.12v5.04h-3.42v-14.04h5.54c1.12 0 2.067.193 2.84.58.774.387 1.354.92 1.74 1.6.387.68.58 1.46.58 2.34zm-5.42 1.76c.654 0 1.14-.153 1.46-.46.32-.307.48-.74.48-1.3s-.16-.993-.48-1.3c-.32-.307-.806-.46-1.46-.46h-1.86v3.52h1.86zm15.941 5.28h-5.24l-.84 2.48h-3.58l5.08-14.04h3.96l5.08 14.04h-3.62l-.84-2.48zm-.88-2.64l-1.74-5.14-1.72 5.14h3.46zm16.206-4.48a2.484 2.484 0 00-1.1-1.06c-.467-.253-1.02-.38-1.66-.38-1.107 0-1.993.367-2.66 1.1-.667.72-1 1.687-1 2.9 0 1.293.347 2.307 1.04 3.04.707.72 1.673 1.08 2.9 1.08.84 0 1.547-.213 2.12-.64.587-.427 1.013-1.04 1.28-1.84h-4.34v-2.52h7.44v3.18a6.632 6.632 0 01-1.3 2.38c-.6.733-1.367 1.327-2.3 1.78-.933.453-1.987.68-3.16.68-1.387 0-2.627-.3-3.72-.9a6.636 6.636 0 01-2.54-2.54c-.6-1.08-.9-2.313-.9-3.7s.3-2.62.9-3.7a6.463 6.463 0 012.54-2.54c1.08-.613 2.313-.92 3.7-.92 1.68 0 3.093.407 4.24 1.22 1.16.813 1.927 1.94 2.3 3.38h-3.78zm14.654 7.12h-5.24l-.84 2.48h-3.58l5.08-14.04h3.96l5.08 14.04h-3.62l-.84-2.48zm-.88-2.64l-1.74-5.14-1.72 5.14h3.46zm22.786-8.92v14.04h-3.42v-8.42l-3.14 8.42h-2.76l-3.16-8.44v8.44h-3.42v-14.04h4.04l3.94 9.72 3.9-9.72h4.02zm5.88 2.74v2.84h4.58v2.64h-4.58v3.08h5.18v2.74h-8.6v-14.04h8.6v2.74h-5.18zm19.96 11.3h-3.42l-5.72-8.66v8.66h-3.42v-14.04h3.42l5.72 8.7v-8.7h3.42v14.04zm12.579-14.04v2.74h-3.72v11.3h-3.42v-11.3h-3.72v-2.74h10.86zm8.357 14.18c-1.32 0-2.534-.307-3.64-.92a6.987 6.987 0 01-2.62-2.56c-.64-1.107-.96-2.347-.96-3.72 0-1.373.32-2.607.96-3.7a6.987 6.987 0 012.62-2.56c1.106-.613 2.32-.92 3.64-.92 1.32 0 2.526.307 3.62.92a6.672 6.672 0 012.6 2.56c.64 1.093.96 2.327.96 3.7 0 1.373-.32 2.613-.96 3.72a6.85 6.85 0 01-2.6 2.56c-1.094.613-2.3.92-3.62.92zm0-3.12c1.12 0 2.013-.373 2.68-1.12.68-.747 1.02-1.733 1.02-2.96 0-1.24-.34-2.227-1.02-2.96-.667-.747-1.56-1.12-2.68-1.12-1.134 0-2.04.367-2.72 1.1-.667.733-1 1.727-1 2.98 0 1.24.333 2.233 1 2.98.68.733 1.586 1.1 2.72 1.1zm14.162 3.12c-1.026 0-1.946-.167-2.76-.5-.813-.333-1.466-.827-1.96-1.48-.48-.653-.733-1.44-.76-2.36h3.64c.054.52.234.92.54 1.2.307.267.707.4 1.2.4.507 0 .907-.113 1.2-.34.294-.24.44-.567.44-.98 0-.347-.12-.633-.36-.86a2.659 2.659 0 00-.86-.56c-.333-.147-.813-.313-1.44-.5-.906-.28-1.646-.56-2.22-.84a4.107 4.107 0 01-1.48-1.24c-.413-.547-.62-1.26-.62-2.14 0-1.307.474-2.327 1.42-3.06.947-.747 2.18-1.12 3.7-1.12 1.547 0 2.794.373 3.74 1.12.947.733 1.454 1.76 1.52 3.08h-3.7c-.026-.453-.193-.807-.5-1.06-.306-.267-.7-.4-1.18-.4-.413 0-.746.113-1 .34-.253.213-.38.527-.38.94 0 .453.214.807.64 1.06.427.253 1.094.527 2 .82.907.307 1.64.6 2.2.88.574.28 1.067.687 1.48 1.22.414.533.62 1.22.62 2.06 0 .8-.206 1.527-.62 2.18-.4.653-.986 1.173-1.76 1.56-.773.387-1.686.58-2.74.58zm-120.633 12.26a2.485 2.485 0 00-1.1-1.06c-.466-.253-1.02-.38-1.66-.38-1.106 0-1.993.367-2.66 1.1-.666.72-1 1.687-1 2.9 0 1.293.347 2.307 1.04 3.04.707.72 1.674 1.08 2.9 1.08.84 0 1.547-.213 2.12-.64.587-.427 1.014-1.04 1.28-1.84h-4.34v-2.52h7.44v3.18a6.617 6.617 0 01-1.3 2.38c-.6.733-1.366 1.327-2.3 1.78-.933.453-1.986.68-3.16.68-1.386 0-2.626-.3-3.72-.9a6.639 6.639 0 01-2.54-2.54c-.6-1.08-.9-2.313-.9-3.7s.3-2.62.9-3.7a6.466 6.466 0 012.54-2.54c1.08-.613 2.314-.92 3.7-.92 1.68 0 3.094.407 4.24 1.22 1.16.813 1.927 1.94 2.3 3.38h-3.78zm14.655 7.12h-5.24l-.84 2.48h-3.58l5.08-14.04h3.96l5.08 14.04h-3.62l-.84-2.48zm-.88-2.64l-1.74-5.14-1.72 5.14h3.46zm14.046 5.12l-2.92-5.3h-.82v5.3h-3.42v-14.04h5.74c1.106 0 2.046.193 2.82.58.786.387 1.373.92 1.76 1.6.386.667.58 1.413.58 2.24 0 .933-.267 1.767-.8 2.5-.52.733-1.294 1.253-2.32 1.56l3.24 5.56h-3.86zm-3.74-7.72h2.12c.626 0 1.093-.153 1.4-.46.32-.307.48-.74.48-1.3 0-.533-.16-.953-.48-1.26-.307-.307-.774-.46-1.4-.46h-2.12v3.48zm18.367 5.24h-5.24l-.84 2.48h-3.58l5.08-14.04h3.96l5.08 14.04h-3.62l-.84-2.48zm-.88-2.64l-1.74-5.14-1.72 5.14h3.46zm19.446 5.12h-3.42l-5.72-8.66v8.66h-3.42v-14.04h3.42l5.72 8.7v-8.7h3.42v14.04zm12.579-14.04v2.74h-3.72v11.3h-3.42v-11.3h-3.72v-2.74h10.86zm5.136 0v14.04h-3.42v-14.04h3.42zm7.739 0c1.48 0 2.773.293 3.88.88a6.207 6.207 0 012.56 2.48c.613 1.053.92 2.273.92 3.66 0 1.373-.307 2.593-.92 3.66-.6 1.067-1.46 1.893-2.58 2.48-1.107.587-2.394.88-3.86.88h-5.26v-14.04h5.26zm-.22 11.08c1.293 0 2.3-.353 3.02-1.06.72-.707 1.08-1.707 1.08-3s-.36-2.3-1.08-3.02c-.72-.72-1.727-1.08-3.02-1.08h-1.62v8.16h1.62zm16.131 3.1c-1.32 0-2.533-.307-3.64-.92a6.994 6.994 0 01-2.62-2.56c-.64-1.107-.96-2.347-.96-3.72 0-1.373.32-2.607.96-3.7a6.994 6.994 0 012.62-2.56c1.107-.613 2.32-.92 3.64-.92 1.32 0 2.527.307 3.62.92a6.665 6.665 0 012.6 2.56c.64 1.093.96 2.327.96 3.7 0 1.373-.32 2.613-.96 3.72a6.85 6.85 0 01-2.6 2.56c-1.093.613-2.3.92-3.62.92zm0-3.12c1.12 0 2.013-.373 2.68-1.12.68-.747 1.02-1.733 1.02-2.96 0-1.24-.34-2.227-1.02-2.96-.667-.747-1.56-1.12-2.68-1.12-1.133 0-2.04.367-2.72 1.1-.667.733-1 1.727-1 2.98 0 1.24.333 2.233 1 2.98.68.733 1.587 1.1 2.72 1.1zm14.162 3.12c-1.026 0-1.946-.167-2.76-.5-.813-.333-1.466-.827-1.96-1.48-.48-.653-.733-1.44-.76-2.36h3.64c.054.52.234.92.54 1.2.307.267.707.4 1.2.4.507 0 .907-.113 1.2-.34.294-.24.44-.567.44-.98 0-.347-.12-.633-.36-.86a2.659 2.659 0 00-.86-.56c-.333-.147-.813-.313-1.44-.5-.906-.28-1.646-.56-2.22-.84a4.107 4.107 0 01-1.48-1.24c-.413-.547-.62-1.26-.62-2.14 0-1.307.474-2.327 1.42-3.06.947-.747 2.18-1.12 3.7-1.12 1.547 0 2.794.373 3.74 1.12.947.733 1.454 1.76 1.52 3.08h-3.7c-.026-.453-.193-.807-.5-1.06-.306-.267-.7-.4-1.18-.4-.413 0-.746.113-1 .34-.253.213-.38.527-.38.94 0 .453.214.807.64 1.06.427.253 1.094.527 2 .82.907.307 1.64.6 2.2.88.574.28 1.067.687 1.48 1.22.414.533.62 1.22.62 2.06 0 .8-.206 1.527-.62 2.18-.4.653-.986 1.173-1.76 1.56-.773.387-1.686.58-2.74.58zm-97.66 17.888c0 .696-.24 1.276-.72 1.74-.472.456-1.196.684-2.172.684h-1.608v3.492h-1.092v-8.364h2.7c.944 0 1.66.228 2.148.684.496.456.744 1.044.744 1.764zm-2.892 1.524c.608 0 1.056-.132 1.344-.396.288-.264.432-.64.432-1.128 0-1.032-.592-1.548-1.776-1.548h-1.608v3.072h1.608zm8.041 4.476c-.776 0-1.484-.18-2.124-.54a4.097 4.097 0 01-1.524-1.524c-.368-.656-.552-1.392-.552-2.208 0-.816.184-1.548.552-2.196a3.984 3.984 0 011.524-1.524 4.185 4.185 0 012.124-.552c.784 0 1.496.184 2.136.552.64.36 1.144.864 1.512 1.512.368.648.552 1.384.552 2.208 0 .824-.184 1.56-.552 2.208a4.01 4.01 0 01-1.512 1.524c-.64.36-1.352.54-2.136.54zm0-.948a3.05 3.05 0 001.572-.408 2.82 2.82 0 001.104-1.164c.272-.504.408-1.088.408-1.752 0-.672-.136-1.256-.408-1.752a2.844 2.844 0 00-1.092-1.164 3.073 3.073 0 00-1.584-.408c-.592 0-1.12.136-1.584.408-.464.272-.832.66-1.104 1.164-.264.496-.396 1.08-.396 1.752 0 .664.132 1.248.396 1.752.272.504.64.892 1.104 1.164.472.272 1 .408 1.584.408zm10.046.864l-1.992-3.42h-1.32v3.42h-1.092v-8.364h2.7c.632 0 1.164.108 1.596.324.44.216.768.508.984.876.216.368.324.788.324 1.26 0 .576-.168 1.084-.504 1.524-.328.44-.824.732-1.488.876l2.1 3.504h-1.308zm-3.312-4.296h1.608c.592 0 1.036-.144 1.332-.432.296-.296.444-.688.444-1.176 0-.496-.148-.88-.444-1.152-.288-.272-.732-.408-1.332-.408h-1.608v3.168zm14.136-4.068v.888h-3.636v2.82h2.952v.888h-2.952v3.768h-1.092v-8.364h4.728zm2.386 0v5.292c0 .744.18 1.296.54 1.656.368.36.876.54 1.524.54.64 0 1.14-.18 1.5-.54.368-.36.552-.912.552-1.656v-5.292h1.092v5.28c0 .696-.14 1.284-.42 1.764-.28.472-.66.824-1.14 1.056a3.57 3.57 0 01-1.596.348 3.647 3.647 0 01-1.608-.348 2.654 2.654 0 01-1.128-1.056c-.272-.48-.408-1.068-.408-1.764v-5.28h1.092zm13.606 8.364h-1.092l-4.392-6.66v6.66h-1.092v-8.376h1.092l4.392 6.648v-6.648h1.092v8.376zm4.466-8.364c.912 0 1.7.172 2.364.516.672.336 1.184.82 1.536 1.452.36.632.54 1.376.54 2.232 0 .856-.18 1.6-.54 2.232a3.524 3.524 0 01-1.536 1.44c-.664.328-1.452.492-2.364.492h-2.604v-8.364h2.604zm0 7.464c1.08 0 1.904-.284 2.472-.852.568-.576.852-1.38.852-2.412 0-1.04-.288-1.852-.864-2.436-.568-.584-1.388-.876-2.46-.876h-1.512v6.576h1.512zm9.672.984c-.776 0-1.484-.18-2.124-.54a4.097 4.097 0 01-1.524-1.524c-.368-.656-.552-1.392-.552-2.208 0-.816.184-1.548.552-2.196a3.984 3.984 0 011.524-1.524 4.185 4.185 0 012.124-.552c.784 0 1.496.184 2.136.552.64.36 1.144.864 1.512 1.512.368.648.552 1.384.552 2.208 0 .824-.184 1.56-.552 2.208a4.01 4.01 0 01-1.512 1.524c-.64.36-1.352.54-2.136.54zm0-.948a3.05 3.05 0 001.572-.408 2.82 2.82 0 001.104-1.164c.272-.504.408-1.088.408-1.752 0-.672-.136-1.256-.408-1.752a2.844 2.844 0 00-1.092-1.164 3.073 3.073 0 00-1.584-.408c-.592 0-1.12.136-1.584.408-.464.272-.832.66-1.104 1.164-.264.496-.396 1.08-.396 1.752 0 .664.132 1.248.396 1.752.272.504.64.892 1.104 1.164.472.272 1 .408 1.584.408zm11.445-7.5c.912 0 1.7.172 2.364.516.672.336 1.184.82 1.536 1.452.36.632.54 1.376.54 2.232 0 .856-.18 1.6-.54 2.232a3.524 3.524 0 01-1.536 1.44c-.664.328-1.452.492-2.364.492h-2.604v-8.364h2.604zm0 7.464c1.08 0 1.904-.284 2.472-.852.568-.576.852-1.38.852-2.412 0-1.04-.288-1.852-.864-2.436-.568-.584-1.388-.876-2.46-.876h-1.512v6.576h1.512zm6.972-6.576v2.796h3.048v.9h-3.048v2.88h3.408v.9h-4.5v-8.376h4.5v.9h-3.408zm-81.474 11.112v8.364h-1.092v-8.364h1.092zm8.437 8.364h-1.092l-4.392-6.66v6.66h-1.092v-8.376h1.092l4.392 6.648v-6.648h1.092v8.376zm8.773-8.364l-3.156 8.364h-1.26l-3.156-8.364h1.164l2.628 7.212 2.628-7.212h1.152zm2.29.888v2.796h3.048v.9h-3.048v2.88h3.408v.9h-4.5v-8.376h4.5v.9h-3.408zm7.712 7.56a3.685 3.685 0 01-1.488-.288 2.542 2.542 0 01-1.02-.816 2.119 2.119 0 01-.384-1.212h1.164c.04.392.2.724.48.996.288.264.704.396 1.248.396.52 0 .928-.128 1.224-.384.304-.264.456-.6.456-1.008 0-.32-.088-.58-.264-.78a1.687 1.687 0 00-.66-.456c-.264-.104-.62-.216-1.068-.336a9.703 9.703 0 01-1.332-.432 2.212 2.212 0 01-.852-.672c-.232-.312-.348-.728-.348-1.248 0-.456.116-.86.348-1.212.232-.352.556-.624.972-.816.424-.192.908-.288 1.452-.288.784 0 1.424.196 1.92.588.504.392.788.912.852 1.56h-1.2c-.04-.32-.208-.6-.504-.84-.296-.248-.688-.372-1.176-.372-.456 0-.828.12-1.116.36-.288.232-.432.56-.432.984 0 .304.084.552.252.744.176.192.388.34.636.444.256.096.612.208 1.068.336.552.152.996.304 1.332.456.336.144.624.372.864.684.24.304.36.72.36 1.248 0 .408-.108.792-.324 1.152-.216.36-.536.652-.96.876-.424.224-.924.336-1.5.336zm9.539-8.448v.888h-2.28v7.476h-1.092v-7.476h-2.292v-.888h5.664zm2.436 0v8.364h-1.092v-8.364h1.092zm10.345.06v8.304H159.9v-6.192l-2.76 6.192h-.768l-2.772-6.204v6.204h-1.092v-8.304h1.176l3.072 6.864 3.072-6.864h1.164zm2.944.828v2.796h3.048v.9h-3.048v2.88h3.408v.9h-4.5v-8.376h4.5v.9h-3.408zm11.637 7.476h-1.092l-4.392-6.66v6.66h-1.092v-8.376h1.092l4.392 6.648v-6.648h1.092v8.376zm7.009-8.364v.888h-2.28v7.476h-1.092v-7.476h-2.292v-.888h5.664zm5.136 8.448c-.776 0-1.484-.18-2.124-.54a4.097 4.097 0 01-1.524-1.524c-.368-.656-.552-1.392-.552-2.208 0-.816.184-1.548.552-2.196a3.984 3.984 0 011.524-1.524 4.185 4.185 0 012.124-.552c.784 0 1.496.184 2.136.552.64.36 1.144.864 1.512 1.512.368.648.552 1.384.552 2.208 0 .824-.184 1.56-.552 2.208a4.01 4.01 0 01-1.512 1.524c-.64.36-1.352.54-2.136.54zm0-.948a3.05 3.05 0 001.572-.408 2.82 2.82 0 001.104-1.164c.272-.504.408-1.088.408-1.752 0-.672-.136-1.256-.408-1.752a2.844 2.844 0 00-1.092-1.164 3.073 3.073 0 00-1.584-.408c-.592 0-1.12.136-1.584.408-.464.272-.832.66-1.104 1.164-.264.496-.396 1.08-.396 1.752 0 .664.132 1.248.396 1.752.272.504.64.892 1.104 1.164.472.272 1 .408 1.584.408zm8.294.948a3.685 3.685 0 01-1.488-.288 2.542 2.542 0 01-1.02-.816 2.119 2.119 0 01-.384-1.212h1.164c.04.392.2.724.48.996.288.264.704.396 1.248.396.52 0 .928-.128 1.224-.384.304-.264.456-.6.456-1.008 0-.32-.088-.58-.264-.78a1.687 1.687 0 00-.66-.456c-.264-.104-.62-.216-1.068-.336a9.703 9.703 0 01-1.332-.432 2.212 2.212 0 01-.852-.672c-.232-.312-.348-.728-.348-1.248 0-.456.116-.86.348-1.212.232-.352.556-.624.972-.816.424-.192.908-.288 1.452-.288.784 0 1.424.196 1.92.588.504.392.788.912.852 1.56h-1.2c-.04-.32-.208-.6-.504-.84-.296-.248-.688-.372-1.176-.372-.456 0-.828.12-1.116.36-.288.232-.432.56-.432.984 0 .304.084.552.252.744.176.192.388.34.636.444.256.096.612.208 1.068.336.552.152.996.304 1.332.456.336.144.624.372.864.684.24.304.36.72.36 1.248 0 .408-.108.792-.324 1.152-.216.36-.536.652-.96.876-.424.224-.924.336-1.5.336z" fill="#0A172D"/><defs><radialGradient id="paint2_radial_0_131" cx="0" cy="0" r="1" gradientUnits="userSpaceOnUse" gradientTransform="matrix(247.189 0 0 233.937 111.286 61.102)"><stop stop-color="#304053"/><stop offset=".23" stop-color="#2C3C4F"/><stop offset=".52" stop-color="#0D1D30"/><stop offset="1" stop-color="#060D29"/></radialGradient><radialGradient id="paint5_radial_0_131" cx="0" cy="0" r="1" gradientUnits="userSpaceOnUse" gradientTransform="matrix(19693.1 0 0 18637.5 8506.31 10969.7)"><stop stop-color="#304053"/><stop offset=".23" stop-color="#2C3C4F"/><stop offset=".52" stop-color="#0D1D30"/><stop offset="1" stop-color="#060D29"/></radialGradient><radialGradient id="paint7_radial_0_131" cx="0" cy="0" r="1" gradientUnits="userSpaceOnUse" gradientTransform="matrix(291.497 0 0 275.872 232.465 134.197)"><stop stop-color="#FFC94C"/><stop offset=".14" stop-color="#A2621E"/><stop offset=".16" stop-color="#965B1C"/><stop offset=".25" stop-color="#6E4314"/><stop offset=".34" stop-color="#4C2E0E"/><stop offset=".44" stop-color="#301D09"/><stop offset=".55" stop-color="#1B1005"/><stop offset=".66" stop-color="#0C0702"/><stop offset=".8" stop-color="#030201"/><stop offset="1"/></radialGradient><radialGradient id="paint8_radial_0_131" cx="0" cy="0" r="1" gradientUnits="userSpaceOnUse" gradientTransform="matrix(539.718 0 0 510.793 77.66 85.276)"><stop offset=".06" stop-color="#2C3C4F"/><stop offset=".52" stop-color="#0D1D30"/><stop offset="1" stop-color="#060D29"/></radialGradient><radialGradient id="paint9_radial_0_131" cx="0" cy="0" r="1" gradientUnits="userSpaceOnUse" gradientTransform="matrix(6341.91 0 0 5710.79 1080.75 889.509)"><stop offset=".06" stop-color="#2C3C4F"/><stop offset=".52" stop-color="#0D1D30"/><stop offset="1" stop-color="#060D29"/></radialGradient><linearGradient id="paint0_linear_0_131" x1="14.97" y1="146.955" x2="303.235" y2="146.955" gradientUnits="userSpaceOnUse"><stop stop-color="#EEBE47"/><stop offset=".12" stop-color="#F8DB77"/><stop offset=".21" stop-color="#FFEE96"/><stop offset=".45" stop-color="#A2621E"/><stop offset=".67" stop-color="#EEA54C"/><stop offset="1" stop-color="#EEBE47"/></linearGradient><linearGradient id="paint1_linear_0_131" x1="213950" y1="298011" x2="177137" y2="259116" gradientUnits="userSpaceOnUse"><stop stop-color="#EEBE47"/><stop offset=".12" stop-color="#F8DB77"/><stop offset=".21" stop-color="#FFEE96"/><stop offset=".45" stop-color="#A2621E"/><stop offset=".67" stop-color="#EEA54C"/><stop offset="1" stop-color="#EEBE47"/></linearGradient><linearGradient id="paint3_linear_0_131" x1="202007" y1="279606" x2="175797" y2="256572" gradientUnits="userSpaceOnUse"><stop stop-color="#EEBE47"/><stop offset=".12" stop-color="#F8DB77"/><stop offset=".21" stop-color="#FFEE96"/><stop offset=".45" stop-color="#A2621E"/><stop offset=".67" stop-color="#EEA54C"/><stop offset="1" stop-color="#EEBE47"/></linearGradient><linearGradient id="paint4_linear_0_131" x1="10270.9" y1="5179.2" x2="28950" y2="34565.5" gradientUnits="userSpaceOnUse"><stop stop-color="#EEBE47"/><stop offset=".12" stop-color="#F8DB77"/><stop offset=".21" stop-color="#FFEE96"/><stop offset=".45" stop-color="#A2621E"/><stop offset=".67" stop-color="#EEA54C"/><stop offset="1" stop-color="#EEBE47"/></linearGradient><linearGradient id="paint6_linear_0_131" x1="9571.9" y1="6060.71" x2="21373.6" y2="25202.2" gradientUnits="userSpaceOnUse"><stop stop-color="#EEBE47"/><stop offset=".12" stop-color="#F8DB77"/><stop offset=".21" stop-color="#FFEE96"/><stop offset=".45" stop-color="#A2621E"/><stop offset=".67" stop-color="#EEA54C"/><stop offset="1" stop-color="#EEBE47"/></linearGradient></defs></svg>