<svg width="310" height="294" viewBox="0 0 310 294" fill="none" xmlns="http://www.w3.org/2000/svg">
<path d="M208.752 267.157C201.637 275.389 187.089 279.315 176.491 275.893C165.893 272.471 148.546 272.739 138.048 276.493C127.55 280.246 112.886 276.808 105.487 268.797C98.0886 260.785 82.958 252.837 71.86 251.134C60.762 249.431 49.914 239.495 47.7477 229.055C45.5814 218.615 36.6664 204.58 27.9513 197.846C19.2362 191.112 15.1036 177.376 18.7196 167.267C22.3356 157.159 22.069 140.868 18.1364 130.996C14.2038 121.123 17.7698 107.119 26.2183 100.117C34.6667 93.1153 43.1319 78.7959 44.8816 68.2929C46.6312 57.7898 57.196 47.5234 68.2107 45.4574C79.2254 43.3915 94.0727 34.986 101.188 26.7381C108.303 18.4902 122.851 14.5792 133.449 18.0171C144.047 21.455 161.444 21.1712 171.909 17.4494C182.373 13.7276 197.054 17.134 204.469 25.1453C211.885 33.1566 226.982 41.1048 238.097 42.7607C249.211 44.4166 260.043 54.415 262.226 64.8392C264.409 75.2633 273.29 89.3147 282.005 96.0486C290.721 102.783 294.853 116.55 291.237 126.58C287.621 136.61 287.904 153.027 291.87 162.978C295.836 172.929 292.204 186.775 283.738 193.777C275.273 200.779 266.875 215.099 265.075 225.602C263.275 236.105 252.777 246.371 241.746 248.437C230.715 250.503 215.867 258.924 208.752 267.157Z" fill="url(#paint0_linear_0_131)"/>
<path d="M284.645 149.735C286.27 81.9562 229.53 25.7635 157.911 24.2254C86.2931 22.6873 26.9174 76.3862 25.2921 144.165C23.6669 211.944 80.4075 268.137 152.026 269.675C223.644 271.213 283.02 217.514 284.645 149.735Z" fill="url(#paint1_linear_0_131)"/>
<path d="M282.722 146.955C282.722 170.869 275.229 194.246 261.191 214.13C247.152 234.014 227.199 249.511 203.854 258.663C180.508 267.814 154.82 270.209 130.037 265.543C105.254 260.878 82.4892 249.362 64.6216 232.453C46.754 215.543 34.586 193.999 29.6564 170.544C24.7267 147.09 27.2568 122.778 36.9266 100.685C46.5965 78.5911 62.9719 59.7073 83.982 46.4214C104.992 33.1355 129.693 26.0442 154.962 26.0442C171.74 26.0421 188.355 29.1682 203.856 35.2438C219.358 41.3194 233.443 50.2256 245.307 61.4537C257.171 72.6817 266.582 86.0117 273.001 100.682C279.421 115.353 282.724 131.077 282.722 146.955V146.955Z" fill="url(#paint2_radial_0_131)"/>
<path d="M278.048 149.594C279.591 85.2627 225.737 31.9287 157.762 30.4688C89.7869 29.009 33.4318 79.9761 31.8893 144.307C30.3467 208.638 84.2007 261.972 152.176 263.432C220.151 264.892 276.506 213.925 278.048 149.594Z" fill="url(#paint3_linear_0_131)"/>
<path d="M268.122 186.546C291.235 127.412 259.32 61.7425 196.836 39.8683C134.353 17.9941 64.9635 48.1988 41.8502 107.332C18.737 166.466 50.6526 232.136 113.136 254.01C175.619 275.884 245.009 245.68 268.122 186.546Z" fill="url(#paint4_linear_0_131)"/>
<path d="M156.202 234.103C208.232 233.458 249.858 193.018 249.177 143.777C248.496 94.5364 205.765 55.1414 153.735 55.786C101.706 56.4306 60.0792 96.8706 60.7604 146.111C61.4415 195.352 104.172 234.747 156.202 234.103Z" fill="url(#paint5_radial_0_131)"/>
<path d="M245.179 144.936C245.179 161.82 239.889 178.324 229.977 192.362C220.066 206.401 205.978 217.342 189.496 223.803C173.015 230.264 154.878 231.955 137.381 228.661C119.884 225.367 103.812 217.237 91.197 205.298C78.5822 193.36 69.9915 178.149 66.511 161.59C63.0306 145.031 64.8169 127.867 71.644 112.269C78.471 96.6702 90.0322 83.3381 104.866 73.9581C119.699 64.5781 137.138 59.5715 154.978 59.5715C178.9 59.5757 201.84 68.5708 218.755 84.5789C235.67 100.587 245.174 122.297 245.179 144.936Z" fill="url(#paint6_linear_0_131)"/>
<path style="mix-blend-mode:screen" d="M98.9054 211.772C129.692 162.269 173.353 121.046 225.732 92.0271C217.851 82.5709 207.943 74.8005 196.661 69.2268C185.38 63.653 172.979 60.4022 160.275 59.6878C147.571 58.9735 134.852 60.8119 122.952 65.0822C111.052 69.3525 100.242 75.958 91.2329 84.4645C82.2233 92.9709 75.2181 103.186 70.6778 114.437C66.1375 125.689 64.1648 137.723 64.8895 149.747C65.6142 161.772 69.0198 173.515 74.8825 184.205C80.7452 194.895 88.9323 204.29 98.9054 211.772V211.772Z" fill="url(#paint7_radial_0_131)"/>
<path d="M53.0136 155.755L46.9647 152.364L40.9158 155.755L42.4655 149.273L37.1665 144.873L44.1819 144.242L46.9647 138.139L49.7642 144.242L56.7629 144.857L51.4806 149.257L53.0136 155.755Z" fill="url(#paint8_radial_0_131)"/>
<path d="M269.158 153.737L263.092 150.346L257.06 153.752L258.593 147.255L253.311 142.855L260.309 142.24L263.092 136.121L265.892 142.24L272.89 142.855L267.608 147.255L269.158 153.737Z" fill="url(#paint9_radial_0_131)"/>
<path d="M96.7754 118.045C96.7754 118.858 96.5888 119.605 96.2154 120.285C95.8421 120.952 95.2688 121.492 94.4954 121.905C93.7221 122.318 92.7621 122.525 91.6154 122.525H89.4954V127.565H86.0754V113.525H91.6154C92.7354 113.525 93.6821 113.718 94.4554 114.105C95.2288 114.492 95.8088 115.025 96.1954 115.705C96.5821 116.385 96.7754 117.165 96.7754 118.045ZM91.3554 119.805C92.0088 119.805 92.4954 119.652 92.8154 119.345C93.1354 119.038 93.2954 118.605 93.2954 118.045C93.2954 117.485 93.1354 117.052 92.8154 116.745C92.4954 116.438 92.0088 116.285 91.3554 116.285H89.4954V119.805H91.3554ZM107.296 125.085H102.056L101.216 127.565H97.6359L102.716 113.525H106.676L111.756 127.565H108.136L107.296 125.085ZM106.416 122.445L104.676 117.305L102.956 122.445H106.416ZM122.622 117.965C122.369 117.498 122.002 117.145 121.522 116.905C121.055 116.652 120.502 116.525 119.862 116.525C118.755 116.525 117.869 116.892 117.202 117.625C116.535 118.345 116.202 119.312 116.202 120.525C116.202 121.818 116.549 122.832 117.242 123.565C117.949 124.285 118.915 124.645 120.142 124.645C120.982 124.645 121.689 124.432 122.262 124.005C122.849 123.578 123.275 122.965 123.542 122.165H119.202V119.645H126.642V122.825C126.389 123.678 125.955 124.472 125.342 125.205C124.742 125.938 123.975 126.532 123.042 126.985C122.109 127.438 121.055 127.665 119.882 127.665C118.495 127.665 117.255 127.365 116.162 126.765C115.082 126.152 114.235 125.305 113.622 124.225C113.022 123.145 112.722 121.912 112.722 120.525C112.722 119.138 113.022 117.905 113.622 116.825C114.235 115.732 115.082 114.885 116.162 114.285C117.242 113.672 118.475 113.365 119.862 113.365C121.542 113.365 122.955 113.772 124.102 114.585C125.262 115.398 126.029 116.525 126.402 117.965H122.622ZM137.276 125.085H132.036L131.196 127.565H127.616L132.696 113.525H136.656L141.736 127.565H138.116L137.276 125.085ZM136.396 122.445L134.656 117.305L132.936 122.445H136.396ZM159.182 113.525V127.565H155.762V119.145L152.622 127.565H149.862L146.702 119.125V127.565H143.282V113.525H147.322L151.262 123.245L155.162 113.525H159.182ZM165.062 116.265V119.105H169.642V121.745H165.062V124.825H170.242V127.565H161.642V113.525H170.242V116.265H165.062ZM185.022 127.565H181.602L175.882 118.905V127.565H172.462V113.525H175.882L181.602 122.225V113.525H185.022V127.565ZM197.601 113.525V116.265H193.881V127.565H190.461V116.265H186.741V113.525H197.601ZM205.958 127.705C204.638 127.705 203.424 127.398 202.318 126.785C201.224 126.172 200.351 125.318 199.698 124.225C199.058 123.118 198.738 121.878 198.738 120.505C198.738 119.132 199.058 117.898 199.698 116.805C200.351 115.712 201.224 114.858 202.318 114.245C203.424 113.632 204.638 113.325 205.958 113.325C207.278 113.325 208.484 113.632 209.578 114.245C210.684 114.858 211.551 115.712 212.178 116.805C212.818 117.898 213.138 119.132 213.138 120.505C213.138 121.878 212.818 123.118 212.178 124.225C211.538 125.318 210.671 126.172 209.578 126.785C208.484 127.398 207.278 127.705 205.958 127.705ZM205.958 124.585C207.078 124.585 207.971 124.212 208.638 123.465C209.318 122.718 209.658 121.732 209.658 120.505C209.658 119.265 209.318 118.278 208.638 117.545C207.971 116.798 207.078 116.425 205.958 116.425C204.824 116.425 203.918 116.792 203.238 117.525C202.571 118.258 202.238 119.252 202.238 120.505C202.238 121.745 202.571 122.738 203.238 123.485C203.918 124.218 204.824 124.585 205.958 124.585ZM220.12 127.705C219.094 127.705 218.174 127.538 217.36 127.205C216.547 126.872 215.894 126.378 215.4 125.725C214.92 125.072 214.667 124.285 214.64 123.365H218.28C218.334 123.885 218.514 124.285 218.82 124.565C219.127 124.832 219.527 124.965 220.02 124.965C220.527 124.965 220.927 124.852 221.22 124.625C221.514 124.385 221.66 124.058 221.66 123.645C221.66 123.298 221.54 123.012 221.3 122.785C221.074 122.558 220.787 122.372 220.44 122.225C220.107 122.078 219.627 121.912 219 121.725C218.094 121.445 217.354 121.165 216.78 120.885C216.207 120.605 215.714 120.192 215.3 119.645C214.887 119.098 214.68 118.385 214.68 117.505C214.68 116.198 215.154 115.178 216.1 114.445C217.047 113.698 218.28 113.325 219.8 113.325C221.347 113.325 222.594 113.698 223.54 114.445C224.487 115.178 224.994 116.205 225.06 117.525H221.36C221.334 117.072 221.167 116.718 220.86 116.465C220.554 116.198 220.16 116.065 219.68 116.065C219.267 116.065 218.934 116.178 218.68 116.405C218.427 116.618 218.3 116.932 218.3 117.345C218.3 117.798 218.514 118.152 218.94 118.405C219.367 118.658 220.034 118.932 220.94 119.225C221.847 119.532 222.58 119.825 223.14 120.105C223.714 120.385 224.207 120.792 224.62 121.325C225.034 121.858 225.24 122.545 225.24 123.385C225.24 124.185 225.034 124.912 224.62 125.565C224.22 126.218 223.634 126.738 222.86 127.125C222.087 127.512 221.174 127.705 220.12 127.705ZM99.4872 139.965C99.2339 139.498 98.8672 139.145 98.3872 138.905C97.9206 138.652 97.3672 138.525 96.7272 138.525C95.6206 138.525 94.7339 138.892 94.0672 139.625C93.4006 140.345 93.0672 141.312 93.0672 142.525C93.0672 143.818 93.4139 144.832 94.1072 145.565C94.8139 146.285 95.7806 146.645 97.0072 146.645C97.8472 146.645 98.5539 146.432 99.1272 146.005C99.7139 145.578 100.141 144.965 100.407 144.165H96.0672V141.645H103.507V144.825C103.254 145.678 102.821 146.472 102.207 147.205C101.607 147.938 100.841 148.532 99.9072 148.985C98.9739 149.438 97.9206 149.665 96.7472 149.665C95.3606 149.665 94.1206 149.365 93.0272 148.765C91.9472 148.152 91.1006 147.305 90.4872 146.225C89.8872 145.145 89.5872 143.912 89.5872 142.525C89.5872 141.138 89.8872 139.905 90.4872 138.825C91.1006 137.732 91.9472 136.885 93.0272 136.285C94.1072 135.672 95.3406 135.365 96.7272 135.365C98.4072 135.365 99.8206 135.772 100.967 136.585C102.127 137.398 102.894 138.525 103.267 139.965H99.4872ZM114.142 147.085H108.902L108.062 149.565H104.482L109.562 135.525H113.522L118.602 149.565H114.982L114.142 147.085ZM113.262 144.445L111.522 139.305L109.802 144.445H113.262ZM127.308 149.565L124.388 144.265H123.568V149.565H120.148V135.525H125.888C126.994 135.525 127.934 135.718 128.708 136.105C129.494 136.492 130.081 137.025 130.468 137.705C130.854 138.372 131.048 139.118 131.048 139.945C131.048 140.878 130.781 141.712 130.248 142.445C129.728 143.178 128.954 143.698 127.928 144.005L131.168 149.565H127.308ZM123.568 141.845H125.688C126.314 141.845 126.781 141.692 127.088 141.385C127.408 141.078 127.568 140.645 127.568 140.085C127.568 139.552 127.408 139.132 127.088 138.825C126.781 138.518 126.314 138.365 125.688 138.365H123.568V141.845ZM141.935 147.085H136.695L135.855 149.565H132.275L137.355 135.525H141.315L146.395 149.565H142.775L141.935 147.085ZM141.055 144.445L139.315 139.305L137.595 144.445H141.055ZM160.501 149.565H157.081L151.361 140.905V149.565H147.941V135.525H151.361L157.081 144.225V135.525H160.501V149.565ZM173.08 135.525V138.265H169.36V149.565H165.94V138.265H162.22V135.525H173.08ZM178.216 135.525V149.565H174.796V135.525H178.216ZM185.955 135.525C187.435 135.525 188.728 135.818 189.835 136.405C190.941 136.992 191.795 137.818 192.395 138.885C193.008 139.938 193.315 141.158 193.315 142.545C193.315 143.918 193.008 145.138 192.395 146.205C191.795 147.272 190.935 148.098 189.815 148.685C188.708 149.272 187.421 149.565 185.955 149.565H180.695V135.525H185.955ZM185.735 146.605C187.028 146.605 188.035 146.252 188.755 145.545C189.475 144.838 189.835 143.838 189.835 142.545C189.835 141.252 189.475 140.245 188.755 139.525C188.035 138.805 187.028 138.445 185.735 138.445H184.115V146.605H185.735ZM201.866 149.705C200.546 149.705 199.333 149.398 198.226 148.785C197.133 148.172 196.259 147.318 195.606 146.225C194.966 145.118 194.646 143.878 194.646 142.505C194.646 141.132 194.966 139.898 195.606 138.805C196.259 137.712 197.133 136.858 198.226 136.245C199.333 135.632 200.546 135.325 201.866 135.325C203.186 135.325 204.393 135.632 205.486 136.245C206.593 136.858 207.459 137.712 208.086 138.805C208.726 139.898 209.046 141.132 209.046 142.505C209.046 143.878 208.726 145.118 208.086 146.225C207.446 147.318 206.579 148.172 205.486 148.785C204.393 149.398 203.186 149.705 201.866 149.705ZM201.866 146.585C202.986 146.585 203.879 146.212 204.546 145.465C205.226 144.718 205.566 143.732 205.566 142.505C205.566 141.265 205.226 140.278 204.546 139.545C203.879 138.798 202.986 138.425 201.866 138.425C200.733 138.425 199.826 138.792 199.146 139.525C198.479 140.258 198.146 141.252 198.146 142.505C198.146 143.745 198.479 144.738 199.146 145.485C199.826 146.218 200.733 146.585 201.866 146.585ZM216.028 149.705C215.002 149.705 214.082 149.538 213.268 149.205C212.455 148.872 211.802 148.378 211.308 147.725C210.828 147.072 210.575 146.285 210.548 145.365H214.188C214.242 145.885 214.422 146.285 214.728 146.565C215.035 146.832 215.435 146.965 215.928 146.965C216.435 146.965 216.835 146.852 217.128 146.625C217.422 146.385 217.568 146.058 217.568 145.645C217.568 145.298 217.448 145.012 217.208 144.785C216.982 144.558 216.695 144.372 216.348 144.225C216.015 144.078 215.535 143.912 214.908 143.725C214.002 143.445 213.262 143.165 212.688 142.885C212.115 142.605 211.622 142.192 211.208 141.645C210.795 141.098 210.588 140.385 210.588 139.505C210.588 138.198 211.062 137.178 212.008 136.445C212.955 135.698 214.188 135.325 215.708 135.325C217.255 135.325 218.502 135.698 219.448 136.445C220.395 137.178 220.902 138.205 220.968 139.525H217.268C217.242 139.072 217.075 138.718 216.768 138.465C216.462 138.198 216.068 138.065 215.588 138.065C215.175 138.065 214.842 138.178 214.588 138.405C214.335 138.618 214.208 138.932 214.208 139.345C214.208 139.798 214.422 140.152 214.848 140.405C215.275 140.658 215.942 140.932 216.848 141.225C217.755 141.532 218.488 141.825 219.048 142.105C219.622 142.385 220.115 142.792 220.528 143.325C220.942 143.858 221.148 144.545 221.148 145.385C221.148 146.185 220.942 146.912 220.528 147.565C220.128 148.218 219.542 148.738 218.768 149.125C217.995 149.512 217.082 149.705 216.028 149.705Z" fill="#0A172D"/>
<path d="M118.368 167.593C118.368 168.289 118.128 168.869 117.648 169.333C117.176 169.789 116.452 170.017 115.476 170.017H113.868V173.509H112.776V165.145H115.476C116.42 165.145 117.136 165.373 117.624 165.829C118.12 166.285 118.368 166.873 118.368 167.593ZM115.476 169.117C116.084 169.117 116.532 168.985 116.82 168.721C117.108 168.457 117.252 168.081 117.252 167.593C117.252 166.561 116.66 166.045 115.476 166.045H113.868V169.117H115.476ZM123.517 173.593C122.741 173.593 122.033 173.413 121.393 173.053C120.753 172.685 120.245 172.177 119.869 171.529C119.501 170.873 119.317 170.137 119.317 169.321C119.317 168.505 119.501 167.773 119.869 167.125C120.245 166.469 120.753 165.961 121.393 165.601C122.033 165.233 122.741 165.049 123.517 165.049C124.301 165.049 125.013 165.233 125.653 165.601C126.293 165.961 126.797 166.465 127.165 167.113C127.533 167.761 127.717 168.497 127.717 169.321C127.717 170.145 127.533 170.881 127.165 171.529C126.797 172.177 126.293 172.685 125.653 173.053C125.013 173.413 124.301 173.593 123.517 173.593ZM123.517 172.645C124.101 172.645 124.625 172.509 125.089 172.237C125.561 171.965 125.929 171.577 126.193 171.073C126.465 170.569 126.601 169.985 126.601 169.321C126.601 168.649 126.465 168.065 126.193 167.569C125.929 167.065 125.565 166.677 125.101 166.405C124.637 166.133 124.109 165.997 123.517 165.997C122.925 165.997 122.397 166.133 121.933 166.405C121.469 166.677 121.101 167.065 120.829 167.569C120.565 168.065 120.433 168.649 120.433 169.321C120.433 169.985 120.565 170.569 120.829 171.073C121.101 171.577 121.469 171.965 121.933 172.237C122.405 172.509 122.933 172.645 123.517 172.645ZM133.563 173.509L131.571 170.089H130.251V173.509H129.159V165.145H131.859C132.491 165.145 133.023 165.253 133.455 165.469C133.895 165.685 134.223 165.977 134.439 166.345C134.655 166.713 134.763 167.133 134.763 167.605C134.763 168.181 134.595 168.689 134.259 169.129C133.931 169.569 133.435 169.861 132.771 170.005L134.871 173.509H133.563ZM130.251 169.213H131.859C132.451 169.213 132.895 169.069 133.191 168.781C133.487 168.485 133.635 168.093 133.635 167.605C133.635 167.109 133.487 166.725 133.191 166.453C132.903 166.181 132.459 166.045 131.859 166.045H130.251V169.213ZM144.387 165.145V166.033H140.751V168.853H143.703V169.741H140.751V173.509H139.659V165.145H144.387ZM146.773 165.145V170.437C146.773 171.181 146.953 171.733 147.313 172.093C147.681 172.453 148.189 172.633 148.837 172.633C149.477 172.633 149.977 172.453 150.337 172.093C150.705 171.733 150.889 171.181 150.889 170.437V165.145H151.981V170.425C151.981 171.121 151.841 171.709 151.561 172.189C151.281 172.661 150.901 173.013 150.421 173.245C149.949 173.477 149.417 173.593 148.825 173.593C148.233 173.593 147.697 173.477 147.217 173.245C146.745 173.013 146.369 172.661 146.089 172.189C145.817 171.709 145.681 171.121 145.681 170.425V165.145H146.773ZM160.379 173.509H159.287L154.895 166.849V173.509H153.803V165.133H154.895L159.287 171.781V165.133H160.379V173.509ZM164.845 165.145C165.757 165.145 166.545 165.317 167.209 165.661C167.881 165.997 168.393 166.481 168.745 167.113C169.105 167.745 169.285 168.489 169.285 169.345C169.285 170.201 169.105 170.945 168.745 171.577C168.393 172.201 167.881 172.681 167.209 173.017C166.545 173.345 165.757 173.509 164.845 173.509H162.241V165.145H164.845ZM164.845 172.609C165.925 172.609 166.749 172.325 167.317 171.757C167.885 171.181 168.169 170.377 168.169 169.345C168.169 168.305 167.881 167.493 167.305 166.909C166.737 166.325 165.917 166.033 164.845 166.033H163.333V172.609H164.845ZM174.517 173.593C173.741 173.593 173.033 173.413 172.393 173.053C171.753 172.685 171.245 172.177 170.869 171.529C170.501 170.873 170.317 170.137 170.317 169.321C170.317 168.505 170.501 167.773 170.869 167.125C171.245 166.469 171.753 165.961 172.393 165.601C173.033 165.233 173.741 165.049 174.517 165.049C175.301 165.049 176.013 165.233 176.653 165.601C177.293 165.961 177.797 166.465 178.165 167.113C178.533 167.761 178.717 168.497 178.717 169.321C178.717 170.145 178.533 170.881 178.165 171.529C177.797 172.177 177.293 172.685 176.653 173.053C176.013 173.413 175.301 173.593 174.517 173.593ZM174.517 172.645C175.101 172.645 175.625 172.509 176.089 172.237C176.561 171.965 176.929 171.577 177.193 171.073C177.465 170.569 177.601 169.985 177.601 169.321C177.601 168.649 177.465 168.065 177.193 167.569C176.929 167.065 176.565 166.677 176.101 166.405C175.637 166.133 175.109 165.997 174.517 165.997C173.925 165.997 173.397 166.133 172.933 166.405C172.469 166.677 172.101 167.065 171.829 167.569C171.565 168.065 171.433 168.649 171.433 169.321C171.433 169.985 171.565 170.569 171.829 171.073C172.101 171.577 172.469 171.965 172.933 172.237C173.405 172.509 173.933 172.645 174.517 172.645ZM185.962 165.145C186.874 165.145 187.662 165.317 188.326 165.661C188.998 165.997 189.51 166.481 189.862 167.113C190.222 167.745 190.402 168.489 190.402 169.345C190.402 170.201 190.222 170.945 189.862 171.577C189.51 172.201 188.998 172.681 188.326 173.017C187.662 173.345 186.874 173.509 185.962 173.509H183.358V165.145H185.962ZM185.962 172.609C187.042 172.609 187.866 172.325 188.434 171.757C189.002 171.181 189.286 170.377 189.286 169.345C189.286 168.305 188.998 167.493 188.422 166.909C187.854 166.325 187.034 166.033 185.962 166.033H184.45V172.609H185.962ZM192.934 166.033V168.829H195.982V169.729H192.934V172.609H196.342V173.509H191.842V165.133H196.342V166.033H192.934ZM111.46 177.145V185.509H110.368V177.145H111.46ZM119.897 185.509H118.805L114.413 178.849V185.509H113.321V177.133H114.413L118.805 183.781V177.133H119.897V185.509ZM128.67 177.145L125.514 185.509H124.254L121.098 177.145H122.262L124.89 184.357L127.518 177.145H128.67ZM130.96 178.033V180.829H134.008V181.729H130.96V184.609H134.368V185.509H129.868V177.133H134.368V178.033H130.96ZM138.672 185.593C138.12 185.593 137.624 185.497 137.184 185.305C136.752 185.105 136.412 184.833 136.164 184.489C135.916 184.137 135.788 183.733 135.78 183.277H136.944C136.984 183.669 137.144 184.001 137.424 184.273C137.712 184.537 138.128 184.669 138.672 184.669C139.192 184.669 139.6 184.541 139.896 184.285C140.2 184.021 140.352 183.685 140.352 183.277C140.352 182.957 140.264 182.697 140.088 182.497C139.912 182.297 139.692 182.145 139.428 182.041C139.164 181.937 138.808 181.825 138.36 181.705C137.808 181.561 137.364 181.417 137.028 181.273C136.7 181.129 136.416 180.905 136.176 180.601C135.944 180.289 135.828 179.873 135.828 179.353C135.828 178.897 135.944 178.493 136.176 178.141C136.408 177.789 136.732 177.517 137.148 177.325C137.572 177.133 138.056 177.037 138.6 177.037C139.384 177.037 140.024 177.233 140.52 177.625C141.024 178.017 141.308 178.537 141.372 179.185H140.172C140.132 178.865 139.964 178.585 139.668 178.345C139.372 178.097 138.98 177.973 138.492 177.973C138.036 177.973 137.664 178.093 137.376 178.333C137.088 178.565 136.944 178.893 136.944 179.317C136.944 179.621 137.028 179.869 137.196 180.061C137.372 180.253 137.584 180.401 137.832 180.505C138.088 180.601 138.444 180.713 138.9 180.841C139.452 180.993 139.896 181.145 140.232 181.297C140.568 181.441 140.856 181.669 141.096 181.981C141.336 182.285 141.456 182.701 141.456 183.229C141.456 183.637 141.348 184.021 141.132 184.381C140.916 184.741 140.596 185.033 140.172 185.257C139.748 185.481 139.248 185.593 138.672 185.593ZM148.211 177.145V178.033H145.931V185.509H144.839V178.033H142.547V177.145H148.211ZM150.647 177.145V185.509H149.555V177.145H150.647ZM160.992 177.205V185.509H159.9V179.317L157.14 185.509H156.372L153.6 179.305V185.509H152.508V177.205H153.684L156.756 184.069L159.828 177.205H160.992ZM163.936 178.033V180.829H166.984V181.729H163.936V184.609H167.344V185.509H162.844V177.133H167.344V178.033H163.936ZM175.573 185.509H174.481L170.089 178.849V185.509H168.997V177.133H170.089L174.481 183.781V177.133H175.573V185.509ZM182.582 177.145V178.033H180.302V185.509H179.21V178.033H176.918V177.145H182.582ZM187.718 185.593C186.942 185.593 186.234 185.413 185.594 185.053C184.954 184.685 184.446 184.177 184.07 183.529C183.702 182.873 183.518 182.137 183.518 181.321C183.518 180.505 183.702 179.773 184.07 179.125C184.446 178.469 184.954 177.961 185.594 177.601C186.234 177.233 186.942 177.049 187.718 177.049C188.502 177.049 189.214 177.233 189.854 177.601C190.494 177.961 190.998 178.465 191.366 179.113C191.734 179.761 191.918 180.497 191.918 181.321C191.918 182.145 191.734 182.881 191.366 183.529C190.998 184.177 190.494 184.685 189.854 185.053C189.214 185.413 188.502 185.593 187.718 185.593ZM187.718 184.645C188.302 184.645 188.826 184.509 189.29 184.237C189.762 183.965 190.13 183.577 190.394 183.073C190.666 182.569 190.802 181.985 190.802 181.321C190.802 180.649 190.666 180.065 190.394 179.569C190.13 179.065 189.766 178.677 189.302 178.405C188.838 178.133 188.31 177.997 187.718 177.997C187.126 177.997 186.598 178.133 186.134 178.405C185.67 178.677 185.302 179.065 185.03 179.569C184.766 180.065 184.634 180.649 184.634 181.321C184.634 181.985 184.766 182.569 185.03 183.073C185.302 183.577 185.67 183.965 186.134 184.237C186.606 184.509 187.134 184.645 187.718 184.645ZM196.012 185.593C195.46 185.593 194.964 185.497 194.524 185.305C194.092 185.105 193.752 184.833 193.504 184.489C193.256 184.137 193.128 183.733 193.12 183.277H194.284C194.324 183.669 194.484 184.001 194.764 184.273C195.052 184.537 195.468 184.669 196.012 184.669C196.532 184.669 196.94 184.541 197.236 184.285C197.54 184.021 197.692 183.685 197.692 183.277C197.692 182.957 197.604 182.697 197.428 182.497C197.252 182.297 197.032 182.145 196.768 182.041C196.504 181.937 196.148 181.825 195.7 181.705C195.148 181.561 194.704 181.417 194.368 181.273C194.04 181.129 193.756 180.905 193.516 180.601C193.284 180.289 193.168 179.873 193.168 179.353C193.168 178.897 193.284 178.493 193.516 178.141C193.748 177.789 194.072 177.517 194.488 177.325C194.912 177.133 195.396 177.037 195.94 177.037C196.724 177.037 197.364 177.233 197.86 177.625C198.364 178.017 198.648 178.537 198.712 179.185H197.512C197.472 178.865 197.304 178.585 197.008 178.345C196.712 178.097 196.32 177.973 195.832 177.973C195.376 177.973 195.004 178.093 194.716 178.333C194.428 178.565 194.284 178.893 194.284 179.317C194.284 179.621 194.368 179.869 194.536 180.061C194.712 180.253 194.924 180.401 195.172 180.505C195.428 180.601 195.784 180.713 196.24 180.841C196.792 180.993 197.236 181.145 197.572 181.297C197.908 181.441 198.196 181.669 198.436 181.981C198.676 182.285 198.796 182.701 198.796 183.229C198.796 183.637 198.688 184.021 198.472 184.381C198.256 184.741 197.936 185.033 197.512 185.257C197.088 185.481 196.588 185.593 196.012 185.593Z" fill="#0A172D"/>
<defs>
<linearGradient id="paint0_linear_0_131" x1="14.9703" y1="146.955" x2="303.235" y2="146.955" gradientUnits="userSpaceOnUse">
<stop stop-color="#EEBE47"/>
<stop offset="0.12" stop-color="#F8DB77"/>
<stop offset="0.21" stop-color="#FFEE96"/>
<stop offset="0.45" stop-color="#A2621E"/>
<stop offset="0.67" stop-color="#EEA54C"/>
<stop offset="1" stop-color="#EEBE47"/>
</linearGradient>
<linearGradient id="paint1_linear_0_131" x1="213950" y1="298011" x2="177137" y2="259116" gradientUnits="userSpaceOnUse">
<stop stop-color="#EEBE47"/>
<stop offset="0.12" stop-color="#F8DB77"/>
<stop offset="0.21" stop-color="#FFEE96"/>
<stop offset="0.45" stop-color="#A2621E"/>
<stop offset="0.67" stop-color="#EEA54C"/>
<stop offset="1" stop-color="#EEBE47"/>
</linearGradient>
<radialGradient id="paint2_radial_0_131" cx="0" cy="0" r="1" gradientUnits="userSpaceOnUse" gradientTransform="translate(111.286 61.1017) scale(247.189 233.937)">
<stop stop-color="#304053"/>
<stop offset="0.23" stop-color="#2C3C4F"/>
<stop offset="0.52" stop-color="#0D1D30"/>
<stop offset="1" stop-color="#060D29"/>
</radialGradient>
<linearGradient id="paint3_linear_0_131" x1="202007" y1="279606" x2="175797" y2="256572" gradientUnits="userSpaceOnUse">
<stop stop-color="#EEBE47"/>
<stop offset="0.12" stop-color="#F8DB77"/>
<stop offset="0.21" stop-color="#FFEE96"/>
<stop offset="0.45" stop-color="#A2621E"/>
<stop offset="0.67" stop-color="#EEA54C"/>
<stop offset="1" stop-color="#EEBE47"/>
</linearGradient>
<linearGradient id="paint4_linear_0_131" x1="10270.9" y1="5179.2" x2="28950" y2="34565.5" gradientUnits="userSpaceOnUse">
<stop stop-color="#EEBE47"/>
<stop offset="0.12" stop-color="#F8DB77"/>
<stop offset="0.21" stop-color="#FFEE96"/>
<stop offset="0.45" stop-color="#A2621E"/>
<stop offset="0.67" stop-color="#EEA54C"/>
<stop offset="1" stop-color="#EEBE47"/>
</linearGradient>
<radialGradient id="paint5_radial_0_131" cx="0" cy="0" r="1" gradientUnits="userSpaceOnUse" gradientTransform="translate(8506.31 10969.7) scale(19693.1 18637.5)">
<stop stop-color="#304053"/>
<stop offset="0.23" stop-color="#2C3C4F"/>
<stop offset="0.52" stop-color="#0D1D30"/>
<stop offset="1" stop-color="#060D29"/>
</radialGradient>
<linearGradient id="paint6_linear_0_131" x1="9571.9" y1="6060.71" x2="21373.6" y2="25202.2" gradientUnits="userSpaceOnUse">
<stop stop-color="#EEBE47"/>
<stop offset="0.12" stop-color="#F8DB77"/>
<stop offset="0.21" stop-color="#FFEE96"/>
<stop offset="0.45" stop-color="#A2621E"/>
<stop offset="0.67" stop-color="#EEA54C"/>
<stop offset="1" stop-color="#EEBE47"/>
</linearGradient>
<radialGradient id="paint7_radial_0_131" cx="0" cy="0" r="1" gradientUnits="userSpaceOnUse" gradientTransform="translate(232.465 134.197) scale(291.497 275.872)">
<stop stop-color="#FFC94C"/>
<stop offset="0.14" stop-color="#A2621E"/>
<stop offset="0.16" stop-color="#965B1C"/>
<stop offset="0.25" stop-color="#6E4314"/>
<stop offset="0.34" stop-color="#4C2E0E"/>
<stop offset="0.44" stop-color="#301D09"/>
<stop offset="0.55" stop-color="#1B1005"/>
<stop offset="0.66" stop-color="#0C0702"/>
<stop offset="0.8" stop-color="#030201"/>
<stop offset="1"/>
</radialGradient>
<radialGradient id="paint8_radial_0_131" cx="0" cy="0" r="1" gradientUnits="userSpaceOnUse" gradientTransform="translate(77.6592 85.2762) scale(539.718 510.793)">
<stop offset="0.06" stop-color="#2C3C4F"/>
<stop offset="0.52" stop-color="#0D1D30"/>
<stop offset="1" stop-color="#060D29"/>
</radialGradient>
<radialGradient id="paint9_radial_0_131" cx="0" cy="0" r="1" gradientUnits="userSpaceOnUse" gradientTransform="translate(1080.75 889.509) scale(6341.91 5710.79)">
<stop offset="0.06" stop-color="#2C3C4F"/>
<stop offset="0.52" stop-color="#0D1D30"/>
<stop offset="1" stop-color="#060D29"/>
</radialGradient>
</defs>
</svg>
